<svg width="24" height="24" viewBox="0 0 24 24" fill="none" xmlns="http://www.w3.org/2000/svg">
<path fill-rule="evenodd" clip-rule="evenodd" d="M0.768 0C1.19215 0 1.536 0.343845 1.536 0.768V20.736C1.536 21.1943 1.71806 21.6338 2.04212 21.9579C2.36618 22.2819 2.80571 22.464 3.264 22.464H23.232C23.6562 22.464 24 22.8078 24 23.232C24 23.6562 23.6562 24 23.232 24H3.264C2.39833 24 1.56812 23.6561 0.956003 23.044C0.343885 22.4319 0 21.6017 0 20.736V0.768C0 0.343845 0.343845 0 0.768 0ZM18.72 7.008C18.72 6.58385 19.0638 6.24 19.488 6.24H23.232C23.6562 6.24 24 6.58385 24 7.008V10.752C24 11.1762 23.6562 11.52 23.232 11.52C22.8078 11.52 22.464 11.1762 22.464 10.752V8.86212L16.2871 15.0391C16.143 15.1831 15.9477 15.264 15.744 15.264C15.5403 15.264 15.345 15.1831 15.2009 15.0391L10.752 10.5901L6.30306 15.0391C6.00314 15.339 5.51687 15.339 5.21694 15.0391C4.91702 14.7391 4.91702 14.2529 5.21694 13.9529L10.2089 8.96094C10.353 8.81691 10.5483 8.736 10.752 8.736C10.9557 8.736 11.151 8.81691 11.2951 8.96094L15.744 13.4099L21.3779 7.776H19.488C19.0638 7.776 18.72 7.43215 18.72 7.008Z" fill="#E6E6E6"/>
</svg>
