<svg width="85" height="85" viewBox="0 0 85 85" fill="none" xmlns="http://www.w3.org/2000/svg">
<path d="M32.1474 5.23071C28.2782 5.23071 25.0689 8.21516 24.1501 12.2478C24.0466 12.2478 23.9689 12.2187 23.8654 12.2187C19.2973 12.2187 15.5833 16.3969 15.5833 21.536C15.5833 22.2348 15.661 22.919 15.8033 23.5742C12.0246 25.3212 9.3718 29.4848 9.3718 34.3473C9.3718 36.1816 9.7859 37.885 10.4459 39.4281C7.34011 41.4372 5.23077 45.1641 5.23077 49.4879C5.23077 54.3358 7.87068 58.4995 11.6235 60.2465C11.507 60.9162 11.4423 61.6004 11.4423 62.2992C11.4423 68.0934 15.6092 72.7812 20.7596 72.7812C21.2902 72.7812 21.8078 72.7084 22.3125 72.6065C23.5548 76.7556 26.997 79.7692 31.1122 79.7692C36.2626 79.7692 40.4295 75.0814 40.4295 69.2872V14.548C40.4295 9.40894 36.7155 5.23071 32.1474 5.23071ZM79.7692 49.4879C79.7692 45.1641 77.6599 41.4372 74.5541 39.4281C75.227 37.885 75.6282 36.1816 75.6282 34.3473C75.6282 29.4848 72.9754 25.3212 69.1967 23.5742C69.3261 22.919 69.4167 22.2348 69.4167 21.536C69.4167 16.3969 65.7027 12.2187 61.1346 12.2187C61.0311 12.2187 60.9405 12.2478 60.8499 12.2478C59.9311 8.21516 56.7218 5.23071 52.8526 5.23071C48.2845 5.23071 44.5705 9.39438 44.5705 14.548V69.2872C44.5705 75.0814 48.7374 79.7692 53.8878 79.7692C58.003 79.7692 61.4452 76.7556 62.6875 72.6065C63.1922 72.7084 63.7098 72.7812 64.2404 72.7812C69.3908 72.7812 73.5577 68.0934 73.5577 62.2992C73.5577 61.6004 73.493 60.9162 73.3765 60.2465C77.1293 58.4995 79.7692 54.3358 79.7692 49.4879Z" fill="#E6E6E6"/>
</svg>
