<svg width="85" height="85" viewBox="0 0 85 85" fill="none" xmlns="http://www.w3.org/2000/svg">
<path fill-rule="evenodd" clip-rule="evenodd" d="M16.1154 25.3529C16.7809 24.6697 17.6836 24.2859 18.6249 24.2859H27.6587C28.5999 24.2859 29.5026 24.6697 30.1682 25.3529C30.8338 26.036 31.2077 26.9626 31.2077 27.9287V40.8443H53.7922V27.9287C53.7922 26.9626 54.1661 26.036 54.8317 25.3529C55.4973 24.6697 56.4 24.2859 57.3412 24.2859H66.3751C67.3163 24.2859 68.219 24.6697 68.8846 25.3529C69.5501 26.036 69.9241 26.9626 69.9241 27.9287V30.9243C70.0309 30.9143 70.1385 30.9093 70.2467 30.9093H76.0541C76.9954 30.9093 77.8981 31.2931 78.5637 31.9762C79.2292 32.6594 79.6031 33.586 79.6031 34.5521V50.4482C79.6031 51.4144 79.2292 52.3409 78.5637 53.0241C77.8981 53.7073 76.9954 54.0911 76.0541 54.0911H70.2467C70.1385 54.0911 70.0309 54.086 69.9241 54.076V57.0716C69.9241 57.55 69.8323 58.0237 69.6539 58.4657C69.4756 58.9076 69.2141 59.3092 68.8846 59.6475C68.555 59.9858 68.1638 60.2541 67.7332 60.4372C67.3026 60.6202 66.8411 60.7145 66.3751 60.7145H57.3412C56.8752 60.7145 56.4137 60.6202 55.9831 60.4372C55.5525 60.2541 55.1613 59.9858 54.8317 59.6475C54.5022 59.3092 54.2407 58.9076 54.0624 58.4657C53.884 58.0237 53.7922 57.55 53.7922 57.0716V44.156H31.2077V57.0716C31.2077 57.55 31.1159 58.0237 30.9375 58.4657C30.7592 58.9076 30.4978 59.3092 30.1682 59.6475C29.8387 59.9858 29.4474 60.2541 29.0168 60.4372C28.5862 60.6202 28.1247 60.7145 27.6587 60.7145H18.6249C18.1588 60.7145 17.6973 60.6202 17.2667 60.4372C16.8361 60.2541 16.4449 59.9858 16.1154 59.6475C15.7858 59.3092 15.5244 58.9076 15.346 58.4657C15.1677 58.0237 15.0759 57.55 15.0759 57.0716V54.076C14.969 54.086 14.8614 54.0911 14.7532 54.0911H8.94579C8.00454 54.0911 7.10184 53.7073 6.43627 53.0241C5.7707 52.3409 5.39679 51.4144 5.39679 50.4482V34.5521C5.39679 33.586 5.7707 32.6594 6.43627 31.9762C7.10184 31.2931 8.00454 30.9093 8.94579 30.9093H14.7532C14.8614 30.9093 14.969 30.9143 15.0759 30.9243V27.9287C15.0759 26.9626 15.4498 26.036 16.1154 25.3529ZM18.3022 57.0716C18.3022 57.1151 18.3106 57.1582 18.3268 57.1983C18.343 57.2385 18.3668 57.275 18.3967 57.3058C18.4267 57.3365 18.4623 57.3609 18.5014 57.3776C18.5405 57.3942 18.5825 57.4028 18.6249 57.4028H27.6587C27.7011 57.4028 27.743 57.3942 27.7822 57.3776C27.8213 57.3609 27.8569 57.3365 27.8868 57.3058C27.9168 57.275 27.9406 57.2385 27.9568 57.1983C27.973 57.1582 27.9813 57.1151 27.9813 57.0716V27.9287C27.9813 27.8409 27.9473 27.7567 27.8868 27.6946C27.8263 27.6325 27.7443 27.5976 27.6587 27.5976H18.6249C18.5393 27.5976 18.4572 27.6325 18.3967 27.6946C18.3362 27.7567 18.3022 27.8409 18.3022 27.9287V57.0716ZM15.0759 34.5521C15.0759 34.4643 15.0419 34.3801 14.9814 34.3179C14.9209 34.2558 14.8388 34.221 14.7532 34.221H8.94579C8.86022 34.221 8.77815 34.2558 8.71765 34.3179C8.65715 34.3801 8.62315 34.4643 8.62315 34.5521V50.4482C8.62315 50.5361 8.65715 50.6203 8.71765 50.6824C8.77815 50.7445 8.86022 50.7794 8.94579 50.7794H14.7532C14.8388 50.7794 14.9209 50.7445 14.9814 50.6824C15.0419 50.6203 15.0759 50.5361 15.0759 50.4482V34.5521ZM57.0186 57.0716C57.0186 57.1151 57.0269 57.1582 57.0432 57.1983C57.0594 57.2385 57.0831 57.275 57.1131 57.3058C57.1431 57.3365 57.1786 57.3609 57.2178 57.3776C57.2569 57.3942 57.2989 57.4028 57.3412 57.4028H66.3751C66.4174 57.4028 66.4594 57.3942 66.4985 57.3776C66.5377 57.3609 66.5732 57.3365 66.6032 57.3058C66.6332 57.275 66.6569 57.2385 66.6731 57.1983C66.6893 57.1582 66.6977 57.1151 66.6977 57.0716V27.9287C66.6977 27.8409 66.6637 27.7567 66.6032 27.6946C66.5427 27.6325 66.4606 27.5976 66.3751 27.5976H57.3412C57.2557 27.5976 57.1736 27.6325 57.1131 27.6946C57.0526 27.7567 57.0186 27.8409 57.0186 27.9287V57.0716ZM69.9241 50.4482C69.9241 50.5361 69.958 50.6203 70.0185 50.6824C70.079 50.7445 70.1611 50.7794 70.2467 50.7794H76.0541C76.1397 50.7794 76.2218 50.7445 76.2823 50.6824C76.3428 50.6203 76.3768 50.5361 76.3768 50.4482V34.5521C76.3768 34.4643 76.3428 34.3801 76.2823 34.3179C76.2218 34.2558 76.1397 34.221 76.0541 34.221H70.2467C70.1611 34.221 70.079 34.2558 70.0185 34.3179C69.958 34.3801 69.9241 34.4643 69.9241 34.5521V50.4482Z" fill="#E6E6E6"/>
</svg>
