<svg xmlns="http://www.w3.org/2000/svg" width="85" height="85" fill="none" viewBox="0 0 85 85"><path fill="#E6E6E6" d="M37.5522 33.7136C37.4467 33.3698 37.4046 33.0067 37.4282 32.6452C37.4519 32.2837 37.5408 31.9307 37.6899 31.6066C37.839 31.2824 38.0454 30.9933 38.2974 30.7558C38.5493 30.5184 38.8417 30.3372 39.1581 30.2226L42.9665 28.8427C43.3482 28.7044 43.7547 28.6667 44.1524 28.7326C44.5501 28.7986 44.9277 28.9663 45.2541 29.222C45.5805 29.4777 45.8463 29.8141 46.0296 30.2034C46.2129 30.5926 46.3085 31.0237 46.3084 31.461V45.2597C46.3084 45.9916 46.041 46.6936 45.5648 47.2111C45.0887 47.7287 44.4429 48.0194 43.7695 48.0194C43.0961 48.0194 42.4503 47.7287 41.9742 47.2111C41.498 46.6936 41.2305 45.9916 41.2305 45.2597V35.2901L40.764 35.4592C40.4477 35.5738 40.1136 35.6196 39.781 35.5939C39.4484 35.5682 39.1237 35.4716 38.8255 35.3095C38.5272 35.1474 38.2613 34.9231 38.0428 34.6492C37.8243 34.3754 37.6576 34.0575 37.5522 33.7136ZM80.5844 70.0974C80.5844 70.8293 80.3169 71.5313 79.8408 72.0488C79.3646 72.5664 78.7188 72.8571 78.0455 72.8571H6.95455C6.28118 72.8571 5.63538 72.5664 5.15923 72.0488C4.68309 71.5313 4.41559 70.8293 4.41559 70.0974C4.41559 69.3654 4.68309 68.6635 5.15923 68.1459C5.63538 67.6284 6.28118 67.3376 6.95455 67.3376H9.49351V34.2207C9.49351 32.7569 10.0285 31.353 10.9808 30.3179C11.9331 29.2828 13.2247 28.7013 14.5714 28.7013H27.2662V17.6623C27.2662 16.1984 27.8012 14.7945 28.7535 13.7594C29.7058 12.7243 30.9974 12.1428 32.3442 12.1428H52.6559C54.0026 12.1428 55.2942 12.7243 56.2465 13.7594C57.1988 14.7945 57.7338 16.1984 57.7338 17.6623V42.5H70.4286C71.7753 42.5 73.0669 43.0815 74.0192 44.1166C74.9715 45.1517 75.5065 46.5556 75.5065 48.0194V67.3376H78.0455C78.7188 67.3376 79.3646 67.6284 79.8408 68.1459C80.3169 68.6635 80.5844 69.3654 80.5844 70.0974ZM57.7338 48.0194V67.3376H70.4286V48.0194H57.7338ZM32.3442 67.3376H52.6559V17.6623H32.3442V67.3376ZM14.5714 67.3376H27.2662V34.2207H14.5714V67.3376Z"/></svg>