<svg xmlns="http://www.w3.org/2000/svg" width="85" height="85" fill="none" viewBox="0 0 85 85"><path fill="#E6E6E6" fill-rule="evenodd" d="M7.46984 5.07458C8.79269 5.07458 9.86506 6.14696 9.86506 7.46981V69.7456C9.86506 71.175 10.4329 72.5457 11.4435 73.5564C12.4542 74.5671 13.825 75.1349 15.2543 75.1349H77.5301C78.853 75.1349 79.9254 76.2073 79.9254 77.5301C79.9254 78.853 78.853 79.9253 77.5301 79.9253H15.2543C12.5545 79.9253 9.96525 78.8528 8.05618 76.9438C6.14712 75.0347 5.07462 72.4455 5.07462 69.7456V7.46981C5.07462 6.14696 6.14699 5.07458 7.46984 5.07458ZM63.4582 26.931C63.4582 25.6082 64.5306 24.5358 65.8534 24.5358H77.5301C78.853 24.5358 79.9254 25.6082 79.9254 26.931V38.6077C79.9254 39.9306 78.853 41.0029 77.5301 41.0029C76.2073 41.0029 75.1349 39.9306 75.1349 38.6077V32.7136L55.8704 51.9781C55.4212 52.4273 54.812 52.6797 54.1767 52.6797C53.5415 52.6797 52.9322 52.4273 52.483 51.9781L38.6078 38.1028L24.7325 51.9781C23.7971 52.9135 22.2805 52.9135 21.3451 51.9781C20.4097 51.0427 20.4097 49.5262 21.3451 48.5908L36.9141 33.0218C37.3633 32.5726 37.9725 32.3203 38.6078 32.3203C39.243 32.3203 39.8522 32.5726 40.3014 33.0218L54.1767 46.8971L71.7476 29.3262H65.8534C64.5306 29.3262 63.4582 28.2538 63.4582 26.931Z" clip-rule="evenodd"/></svg>