<svg width="35" height="36" viewBox="0 0 35 36" fill="none" xmlns="http://www.w3.org/2000/svg">
<path d="M3.83333 0.75C2.81667 0.75 1.84165 1.15387 1.12276 1.87276C0.403868 2.59165 0 3.56667 0 4.58333V31.4167C0 32.4333 0.403868 33.4084 1.12276 34.1272C1.84165 34.8461 2.81667 35.25 3.83333 35.25H30.6667C31.6833 35.25 32.6584 34.8461 33.3772 34.1272C34.0961 33.4084 34.5 32.4333 34.5 31.4167V4.58333C34.5 3.56667 34.0961 2.59165 33.3772 1.87276C32.6584 1.15387 31.6833 0.75 30.6667 0.75M5.75 8.41667H26.8333V12.25H23V21.8333C23 22.3417 23.2019 22.8292 23.5614 23.1886C23.9208 23.5481 24.4083 23.75 24.9167 23.75C25.425 23.75 25.9125 23.5481 26.272 23.1886C26.6314 22.8292 26.8333 22.3417 26.8333 21.8333H30.6667C30.6667 23.3583 30.0609 24.8209 28.9825 25.8992C27.9042 26.9775 26.4417 27.5833 24.9167 27.5833C23.3917 27.5833 21.9291 26.9775 20.8508 25.8992C19.7725 24.8209 19.1667 23.3583 19.1667 21.8333V12.25H13.4167V27.5833H9.58333V12.25H5.75" fill="#E6E6E6"/>
</svg>
