<svg width="24" height="24" viewBox="0 0 24 24" fill="none" xmlns="http://www.w3.org/2000/svg">
<path d="M8.66667 0C7.42083 0 6.3875 0.960938 6.09167 2.25938C6.05833 2.25938 6.03333 2.25 6 2.25C4.52917 2.25 3.33333 3.59531 3.33333 5.25C3.33333 5.475 3.35833 5.69531 3.40417 5.90625C2.1875 6.46875 1.33333 7.80937 1.33333 9.375C1.33333 9.96563 1.46667 10.5141 1.67917 11.0109C0.679167 11.6578 0 12.8578 0 14.25C0 15.8109 0.85 17.1516 2.05833 17.7141C2.02083 17.9297 2 18.15 2 18.375C2 20.2406 3.34167 21.75 5 21.75C5.17083 21.75 5.3375 21.7266 5.5 21.6937C5.9 23.0297 7.00833 24 8.33333 24C9.99167 24 11.3333 22.4906 11.3333 20.625V3C11.3333 1.34531 10.1375 0 8.66667 0ZM24 14.25C24 12.8578 23.3208 11.6578 22.3208 11.0109C22.5375 10.5141 22.6667 9.96563 22.6667 9.375C22.6667 7.80937 21.8125 6.46875 20.5958 5.90625C20.6375 5.69531 20.6667 5.475 20.6667 5.25C20.6667 3.59531 19.4708 2.25 18 2.25C17.9667 2.25 17.9375 2.25938 17.9083 2.25938C17.6125 0.960938 16.5792 0 15.3333 0C13.8625 0 12.6667 1.34062 12.6667 3V20.625C12.6667 22.4906 14.0083 24 15.6667 24C16.9917 24 18.1 23.0297 18.5 21.6937C18.6625 21.7266 18.8292 21.75 19 21.75C20.6583 21.75 22 20.2406 22 18.375C22 18.15 21.9792 17.9297 21.9417 17.7141C23.15 17.1516 24 15.8109 24 14.25Z" fill="#DDDDDD"/>
</svg>
