<svg width="28" height="21" viewBox="0 0 28 21" fill="none" xmlns="http://www.w3.org/2000/svg">
<path d="M0 1.75C0 0.782031 0.782031 0 1.75 0H22.75C23.718 0 24.5 0.782031 24.5 1.75C24.5 2.71797 23.718 3.5 22.75 3.5H1.75C0.782031 3.5 0 2.71797 0 1.75ZM3.5 10.5C3.5 9.53203 4.28203 8.75 5.25 8.75H26.25C27.218 8.75 28 9.53203 28 10.5C28 11.468 27.218 12.25 26.25 12.25H5.25C4.28203 12.25 3.5 11.468 3.5 10.5ZM24.5 19.25C24.5 20.218 23.718 21 22.75 21H1.75C0.782031 21 0 20.218 0 19.25C0 18.282 0.782031 17.5 1.75 17.5H22.75C23.718 17.5 24.5 18.282 24.5 19.25Z" fill="#E6E6E6"/>
</svg>
