<svg width="24" height="24" viewBox="0 0 24 24" fill="none" xmlns="http://www.w3.org/2000/svg">
<path fill-rule="evenodd" clip-rule="evenodd" d="M3.46663 7.32218C3.68188 7.11589 3.97384 7 4.27826 7H7.2C7.50442 7 7.79638 7.11589 8.01164 7.32218C8.22689 7.52847 8.34783 7.80826 8.34783 8.1V12H15.6522V8.1C15.6522 7.80826 15.7731 7.52847 15.9884 7.32218C16.2036 7.11589 16.4956 7 16.8 7H19.7217C20.0262 7 20.3181 7.11589 20.5334 7.32218C20.7486 7.52847 20.8696 7.80826 20.8696 8.1V9.00455C20.9041 9.00153 20.9389 9 20.9739 9H22.8522C23.1566 9 23.4485 9.11589 23.6638 9.32218C23.8791 9.52847 24 9.80826 24 10.1V14.9C24 15.1917 23.8791 15.4715 23.6638 15.6778C23.4485 15.8841 23.1566 16 22.8522 16H20.9739C20.9389 16 20.9041 15.9985 20.8696 15.9954V16.9C20.8696 17.0444 20.8399 17.1875 20.7822 17.321C20.7245 17.4544 20.64 17.5757 20.5334 17.6778C20.4268 17.78 20.3003 17.861 20.161 17.9163C20.0217 17.9715 19.8725 18 19.7217 18H16.8C16.6493 18 16.5 17.9715 16.3607 17.9163C16.2215 17.861 16.0949 17.78 15.9884 17.6778C15.8818 17.5757 15.7972 17.4544 15.7395 17.321C15.6819 17.1875 15.6522 17.0444 15.6522 16.9V13H8.34783V16.9C8.34783 17.0445 8.31814 17.1875 8.26045 17.321C8.20277 17.4544 8.11822 17.5757 8.01164 17.6778C7.90505 17.78 7.77852 17.861 7.63925 17.9163C7.49999 17.9715 7.35073 18 7.2 18H4.27826C4.12753 18 3.97827 17.9715 3.83901 17.9163C3.69974 17.861 3.57321 17.78 3.46663 17.6778C3.36004 17.5757 3.27549 17.4544 3.21781 17.321C3.16012 17.1875 3.13043 17.0445 3.13043 16.9V15.9954C3.09588 15.9985 3.06107 16 3.02609 16H1.14783C0.843405 16 0.55145 15.8841 0.336191 15.6778C0.120931 15.4715 0 15.1917 0 14.9V10.1C0 9.80826 0.120931 9.52847 0.336191 9.32218C0.55145 9.11589 0.843405 9 1.14783 9H3.02609C3.06107 9 3.09588 9.00153 3.13043 9.00455V8.1C3.13043 7.80826 3.25137 7.52847 3.46663 7.32218ZM4.17391 16.9C4.17391 16.9131 4.17661 16.9261 4.18186 16.9383C4.1871 16.9504 4.19479 16.9614 4.20448 16.9707C4.21417 16.98 4.22567 16.9874 4.23833 16.9924C4.25099 16.9974 4.26455 17 4.27826 17H7.2C7.21371 17 7.22728 16.9974 7.23993 16.9924C7.25259 16.9874 7.26409 16.98 7.27379 16.9707C7.28347 16.9614 7.29116 16.9504 7.2964 16.9383C7.30165 16.9261 7.30435 16.9131 7.30435 16.9V8.1C7.30435 8.07348 7.29335 8.04804 7.27379 8.02929C7.25422 8.01054 7.22767 8 7.2 8H4.27826C4.25059 8 4.22404 8.01054 4.20448 8.02929C4.18491 8.04804 4.17391 8.07348 4.17391 8.1V16.9ZM3.13043 10.1C3.13043 10.0735 3.11944 10.048 3.09987 10.0293C3.0803 10.0105 3.05376 10 3.02609 10H1.14783C1.12015 10 1.09361 10.0105 1.07404 10.0293C1.05447 10.048 1.04348 10.0735 1.04348 10.1V14.9C1.04348 14.9265 1.05447 14.952 1.07404 14.9707C1.09361 14.9895 1.12015 15 1.14783 15H3.02609C3.05376 15 3.0803 14.9895 3.09987 14.9707C3.11944 14.952 3.13043 14.9265 3.13043 14.9V10.1ZM16.6957 16.9C16.6957 16.9131 16.6984 16.9261 16.7036 16.9383C16.7088 16.9504 16.7165 16.9614 16.7262 16.9707C16.7359 16.98 16.7474 16.9874 16.7601 16.9924C16.7727 16.9974 16.7863 17 16.8 17H19.7217C19.7354 17 19.749 16.9974 19.7617 16.9924C19.7743 16.9874 19.7858 16.98 19.7955 16.9707C19.8052 16.9614 19.8129 16.9504 19.8181 16.9383C19.8234 16.9261 19.8261 16.9131 19.8261 16.9V8.1C19.8261 8.07348 19.8151 8.04804 19.7955 8.02929C19.776 8.01054 19.7494 8 19.7217 8H16.8C16.7723 8 16.7458 8.01054 16.7262 8.02929C16.7066 8.04804 16.6957 8.07348 16.6957 8.1V16.9ZM20.8696 14.9C20.8696 14.9265 20.8806 14.952 20.9001 14.9707C20.9197 14.9895 20.9462 15 20.9739 15H22.8522C22.8799 15 22.9064 14.9895 22.926 14.9707C22.9455 14.952 22.9565 14.9265 22.9565 14.9V10.1C22.9565 10.0735 22.9455 10.048 22.926 10.0293C22.9064 10.0105 22.8799 10 22.8522 10H20.9739C20.9462 10 20.9197 10.0105 20.9001 10.0293C20.8806 10.048 20.8696 10.0735 20.8696 10.1V14.9Z" fill="#E6E6E6"/>
</svg>
