<?xml version="1.0" encoding="UTF-8"?>
<svg width="63" height="63" fill="none" version="1.1" viewBox="0 0 63 63" xmlns="http://www.w3.org/2000/svg">
 <path d="M7 0C5.14348 0 3.36301 0.737498 2.05025 2.05025C0.737498 3.36301 0 5.14348 0 7V56C0 57.8565 0.737498 59.637 2.05025 60.9497C3.36301 62.2625 5.14348 63 7 63H56C57.8565 63 59.637 62.2625 60.9497 60.9497C62.2625 59.637 63 57.8565 63 56V7C63 5.14348 62.2625 3.36301 60.9497 2.05025C59.637 0.737498 57.8565 0 56 0M10.5 14H49V21H42V38.5C42 39.4283 42.3688 40.3185 43.0251 40.9749C43.6815 41.6312 44.5717 42 45.5 42C46.4283 42 47.3185 41.6312 47.9749 40.9749C48.6313 40.3185 49 39.4283 49 38.5H56C56 41.2848 54.8938 43.9555 52.9246 45.9246C50.9555 47.8938 48.2848 49 45.5 49C42.7152 49 40.0445 47.8938 38.0754 45.9246C36.1062 43.9555 35 41.2848 35 38.5V21H24.5V49H17.5V21H10.5" fill="#262626"/>
</svg>
